<?xml version="1.0" encoding="UTF-8"?>
<svg width="115px" height="30px" viewBox="0 0 115 30" version="1.1" xmlns="http://www.w3.org/2000/svg" xmlns:xlink="http://www.w3.org/1999/xlink">
    <!-- Generator: Sketch 64 (93537) - https://sketch.com -->
    <title>Group 11</title>
    <desc>Created with Sketch.</desc>
    <g id="Page-1" stroke="none" stroke-width="1" fill="none" fill-rule="evenodd">
        <g id="Home" transform="translate(-548.000000, -2795.000000)">
            <g id="Group-26" transform="translate(548.000000, 2775.000000)">
                <g id="Group-11" transform="translate(0.000000, 20.000000)">
                    <rect id="Rectangle_26" fill="#000000" fill-rule="nonzero" x="0" y="0" width="115" height="30" rx="5"></rect>
                    <g id="Download_on_the" transform="translate(34.000000, 2.000000)" fill="#FFFFFF" font-family="Inter-Medium, Inter" font-size="9" font-weight="400">
                        <text id="Download-on-the">
                            <tspan x="0" y="9">Download on the</tspan>
                        </text>
                    </g>
                    <g id="App_Store" transform="translate(34.000000, 12.000000)" fill="#FFFFFF" font-family="Inter-Medium, Inter" font-size="12" font-weight="400" letter-spacing="0.95">
                        <text id="App-Store">
                            <tspan x="0" y="12">App Store</tspan>
                        </text>
                    </g>
                    <g id="Icon_ionic-logo-apple" transform="translate(10.252000, 3.371000)" fill="#FFFFFF" fill-rule="nonzero">
                        <path d="M13.205,5.213 C11.444,5.213 10.699,6.078 9.472,6.078 C8.214,6.078 7.254,5.218 5.729,5.218 C4.02285341,5.32099728 2.48253668,6.27411521 1.629,7.755 C0.208,10.009 0.449,14.255 2.751,17.873 C3.574,19.168 4.675,20.62 6.117,20.636 L6.143,20.636 C7.396,20.636 7.768,19.792 9.493,19.781 L9.519,19.781 C11.219,19.781 11.558,20.63 12.806,20.63 L12.832,20.63 C14.274,20.614 15.432,19.005 16.255,17.715 C16.7553734,16.943251 17.1803314,16.1251482 17.524,15.272 C15.9472873,14.6253422 14.8732835,13.1409666 14.7521981,11.4411056 C14.6311127,9.74124458 15.4838683,8.11962098 16.953,7.256 C16.0790505,6.04052763 14.7000631,5.28811853 13.205,5.211 L13.205,5.213 Z" id="Path_64"></path>
                        <path d="M12.818,0.5 C11.645683,0.646640712 10.5752517,1.24025002 9.83,2.157 C9.07435397,3.03682803 8.71925976,4.19160888 8.85,5.344 L8.934,5.344 C10.0958591,5.28166408 11.1688908,4.70277721 11.859,3.766 C12.597377,2.84666959 12.9421243,1.67258783 12.818,0.5 Z" id="Path_65"></path>
                    </g>
                </g>
            </g>
        </g>
    </g>
</svg>