<?xml version="1.0" encoding="UTF-8"?>
<svg width="29px" height="23px" viewBox="0 0 29 23" version="1.1" xmlns="http://www.w3.org/2000/svg" xmlns:xlink="http://www.w3.org/1999/xlink">
    <!-- Generator: sketchtool 64 (101010) - https://sketch.com -->
    <title>EFE34CDC-AEAA-457E-9666-169F382E08A5</title>
    <desc>Created with sketchtool.</desc>
    <g id="Page-1" stroke="none" stroke-width="1" fill="none" fill-rule="evenodd">
        <g id="Home" transform="translate(-748.000000, -2557.000000)">
            <g id="Group-31" transform="translate(521.000000, 2496.000000)">
                <g id="Group-13">
                    <g id="Group-12" transform="translate(227.000000, 61.000000)">
                        <g id="chat-(1)" transform="translate(20.500000, 8.500000) scale(-1, 1) translate(-20.500000, -8.500000) translate(12.000000, 0.000000)" fill="#000000" fill-rule="nonzero">
                            <path d="M14.5055092,2.49069767 C12.898827,0.884143763 10.7673673,0 8.49572725,0 C6.22408719,0 4.09262745,0.884143763 2.48594532,2.49069767 C-0.619587927,5.59598309 -0.835249958,10.5665962 1.95038461,13.9198732 C1.6772127,14.4697674 1.23869991,15.1095137 0.588119446,15.4293869 C0.275409502,15.5839323 0.0992855097,15.9181818 0.153201017,16.2632135 C0.207116525,16.6082452 0.473099697,16.8778013 0.818158946,16.9317125 C0.979905469,16.956871 1.20994497,16.9820296 1.49030561,16.9820296 C2.24152835,16.9820296 3.34859344,16.8059197 4.4808191,15.9900634 C5.74244199,16.6693446 7.12267898,17 8.49213288,17 C10.6918856,17 12.8700721,16.148203 14.5091035,14.5093023 C16.1157857,12.9027484 17,10.7714588 17,8.5 C17,6.22854123 16.1121913,4.09725159 14.5055092,2.49069767 Z M13.818985,13.822833 C11.3927872,16.2488372 7.63667349,16.730444 4.68210367,14.9945032 C4.48800784,14.8794926 4.24718524,14.9154334 4.09262745,15.0699789 C4.07824998,15.077167 4.06387251,15.0879493 4.05308941,15.0987315 C3.0790159,15.8534884 2.12291423,16.0116279 1.49030561,16.0116279 L1.48671124,16.0116279 C2.21636778,15.479704 2.67644678,14.6890063 2.94602432,14.0744186 C2.98915672,13.9701903 2.99634546,13.8623679 2.97118489,13.7617336 C2.96040179,13.6646934 2.92086375,13.5676533 2.85257077,13.4885835 C0.221493994,10.5162791 0.358079947,5.98773784 3.16887508,3.17716702 C6.10547307,0.240803383 10.8823871,0.240803383 13.8153907,3.17716702 C16.755583,6.11353066 16.755583,10.8864693 13.818985,13.822833 Z" id="Shape"></path>
                            <circle id="Oval" cx="8.45142857" cy="8.54857143" r="1"></circle>
                            <circle id="Oval" cx="11.56" cy="8.54857143" r="1"></circle>
                            <circle id="Oval" cx="5.44" cy="8.54857143" r="1"></circle>
                        </g>
                        <g id="Group-11" transform="translate(0.000000, 4.000000)">
                            <g id="Group-10">
                                <circle id="Oval" fill="#FFFFFF" cx="10" cy="9.95238095" r="9.04761905"></circle>
                                <path d="M17.0653049,2.78372093 C15.1750906,0.988160677 12.6674909,0 9.99497323,0 C7.32245552,0 4.81485582,0.988160677 2.92464155,2.78372093 C-0.728926973,6.25433404 -0.982647009,11.8097252 2.29457013,15.5575053 C1.97319141,16.172093 1.45729401,16.8871036 0.691905231,17.2446089 C0.324011178,17.4173362 0.116806482,17.7909091 0.180236491,18.1765328 C0.2436665,18.5621564 0.556587878,18.8634249 0.962539937,18.9236786 C1.15282996,18.951797 1.42346467,18.9799154 1.75330072,18.9799154 C2.63709218,18.9799154 3.9395217,18.7830867 5.27155189,17.8712474 C6.7558141,18.630444 8.37962233,19 9.99074456,19 C12.5786889,19 15.1412613,18.0479915 17.0695336,16.2162791 C18.9597479,14.4207188 20,12.0386892 20,9.5 C20,6.96131078 18.9555192,4.57928118 17.0653049,2.78372093 Z M16.2576295,15.4490486 C13.4032791,18.1604651 8.98432175,18.6987315 5.50835726,16.7585624 C5.28000922,16.6300211 4.99668852,16.6701903 4.81485582,16.8429175 C4.79794115,16.8509514 4.78102648,16.8630021 4.76834048,16.8750529 C3.62237165,17.7186047 2.49754616,17.8953488 1.75330072,17.8953488 L1.74907205,17.8953488 C2.60749151,17.3008457 3.14876092,16.4171247 3.46591096,15.7302326 C3.51665497,15.6137421 3.5251123,15.4932347 3.49551163,15.3807611 C3.48282563,15.2723044 3.43631029,15.1638478 3.35596561,15.0754757 C0.260581169,11.7534884 0.421270526,6.69217759 3.72808833,3.55095137 C7.1829095,0.269133192 12.8028083,0.269133192 16.2534008,3.55095137 C19.7124506,6.83276956 19.7124506,12.1672304 16.2576295,15.4490486 Z" id="Shape" fill="#000000" fill-rule="nonzero"></path>
                            </g>
                            <g id="Group-9" transform="translate(5.714286, 9.047619)" fill="#000000" fill-rule="nonzero">
                                <ellipse id="Oval" cx="4.22857143" cy="0.651428571" rx="1" ry="1"></ellipse>
                                <ellipse id="Oval" cx="7.88571429" cy="0.651428571" rx="1" ry="1"></ellipse>
                                <ellipse id="Oval" cx="0.685714286" cy="0.651428571" rx="1" ry="1"></ellipse>
                            </g>
                        </g>
                    </g>
                </g>
            </g>
        </g>
    </g>
</svg>