<?xml version="1.0" encoding="UTF-8"?>
<svg width="16px" height="18px" viewBox="0 0 16 18" version="1.1" xmlns="http://www.w3.org/2000/svg" xmlns:xlink="http://www.w3.org/1999/xlink">
    <title>1D3A86F0-8CE2-42B1-A4D1-A6E2DF4595FD</title>
    <g id="Page-1" stroke="none" stroke-width="1" fill="none" fill-rule="evenodd">
        <g id="DR-1.2_Download_Share" transform="translate(-618.000000, -317.000000)" fill="#626262" fill-rule="nonzero">
            <g id="Bitmap" transform="translate(475.000000, 143.000000)">
                <g id="Group-10" transform="translate(125.000000, 159.000000)">
                    <g id="Group-38" transform="translate(18.000000, 15.000000)">
                        <path d="M15.3333333,10.5494071 C14.965181,10.5494071 14.6666667,10.8446429 14.6666667,11.2087521 L14.6666667,15.8241671 L1.33333333,15.8241671 L1.33333333,11.2087521 C1.33333333,10.8446429 1.03481905,10.5494071 0.666666667,10.5494071 C0.298514286,10.5494071 0,10.8446429 0,11.2087521 L0,16.4835121 C0,16.6583554 0.0702384762,16.8261379 0.195238095,16.9497632 C0.320237714,17.0733886 0.489881905,17.1428571 0.666666667,17.1428571 L15.3333333,17.1428571 C15.5101181,17.1428571 15.6797638,17.0733901 15.8047619,16.9497632 C15.92976,16.8261364 16,16.6583554 16,16.4835121 L16,11.2087521 C16,11.0339089 15.9297615,10.8661263 15.8047619,10.742501 C15.6797623,10.6188757 15.5101181,10.5494071 15.3333333,10.5494071 Z" id="Path"></path>
                        <path d="M7.56647619,13.0285443 C7.8158781,13.239595 8.18374095,13.239595 8.43314286,13.0285443 L13.0998095,9.07247426 C13.3120152,8.89321531 13.3885029,8.6021013 13.2917714,8.34307291 C13.1953448,8.08404451 12.9456381,7.91214008 12.6664827,7.91214008 L10.6664827,7.91214008 L10.6664827,0.659345007 C10.6664827,0.484501782 10.5962377,0.3167192 10.4712381,0.193093895 C10.3462385,0.0694685899 10.1765943,0 9.99980952,0 L5.99980952,0 C5.63165714,0 5.33314286,0.295235856 5.33314286,0.659345007 L5.33314286,7.91214008 L3.33314286,7.91214008 C3.05397333,7.91214008 2.80427429,8.08403697 2.70784762,8.34307291 C2.61112381,8.6021013 2.6876099,8.89321531 2.89980952,9.07247426 L7.56647619,13.0285443 Z M5.99984762,9.23086777 C6.17663238,9.23086777 6.3462781,9.16140069 6.47127619,9.03777388 C6.59627429,8.91414706 6.66651429,8.74636599 6.66651429,8.57152276 L6.66651429,1.31872769 L9.33318095,1.31872769 L9.33318095,8.57152276 C9.33318095,8.74636599 9.40341943,8.91414857 9.52841905,9.03777388 C9.65341867,9.16139918 9.82306286,9.23086777 9.99984762,9.23086777 L10.8665143,9.23086777 L7.99984762,11.657182 L5.13318095,9.23086777 L5.99984762,9.23086777 Z" id="Shape"></path>
                    </g>
                </g>
            </g>
        </g>
    </g>
</svg>