<?xml version="1.0" encoding="UTF-8"?>
<svg width="30px" height="30px" viewBox="0 0 30 30" version="1.1" xmlns="http://www.w3.org/2000/svg" xmlns:xlink="http://www.w3.org/1999/xlink">
    <!-- Generator: sketchtool 64 (101010) - https://sketch.com -->
    <title>56B6EDBE-4833-4A3E-8859-F958769D4CA4</title>
    <desc>Created with sketchtool.</desc>
    <g id="Page-1" stroke="none" stroke-width="1" fill="none" fill-rule="evenodd">
        <g id="Home" transform="translate(-660.000000, -1628.000000)" fill-rule="nonzero">
            <g id="Group-33" transform="translate(660.000000, 1628.000000)">
                <g id="neutral-(1)">
                    <circle id="Oval" fill="#FFD93B" cx="14.5833333" cy="14.5833333" r="14.5833333"></circle>
                    <g id="Group" transform="translate(6.076389, 8.506944)" fill="#3E4347">
                        <circle id="Oval" cx="2.43055556" cy="2.43055556" r="2.43055556"></circle>
                        <circle id="Oval" cx="14.5833333" cy="2.43055556" r="2.43055556"></circle>
                        <path d="M12.4565972,13.3680556 L4.55729167,13.3680556 C4.05416667,13.3680556 3.64583333,12.9597222 3.64583333,12.4565972 C3.64583333,11.9534722 4.05416667,11.5451389 4.55729167,11.5451389 L12.4565972,11.5451389 C12.9597222,11.5451389 13.3680556,11.9534722 13.3680556,12.4565972 C13.3680556,12.9597222 12.9597222,13.3680556 12.4565972,13.3680556 Z" id="Path"></path>
                    </g>
                </g>
                <path d="M29.2776204,14.6893725 C29.2776204,22.7493795 22.7448206,29.2776204 14.6893725,29.2776204 C10.1031921,29.2776204 6.00936505,27.1623245 3.33333333,23.8480569 C5.83612961,25.8721763 9.02275,27.0802656 12.4920177,27.0802656 C20.5474658,27.0802656 27.0802656,20.5520246 27.0802656,12.4920177 C27.0802656,9.02275 25.8721763,5.83612961 23.8480569,3.33333333 C27.1577656,6.00936505 29.2776204,10.1031921 29.2776204,14.6893725 Z" id="Path" fill="#F4C534"></path>
            </g>
        </g>
    </g>
</svg>