<?xml version="1.0" encoding="UTF-8"?>
<svg width="30px" height="30px" viewBox="0 0 30 30" version="1.1" xmlns="http://www.w3.org/2000/svg" xmlns:xlink="http://www.w3.org/1999/xlink">
    <!-- Generator: sketchtool 64 (101010) - https://sketch.com -->
    <title>291D2231-8A7B-4415-83F5-D871B337D19B</title>
    <desc>Created with sketchtool.</desc>
    <g id="Page-1" stroke="none" stroke-width="1" fill="none" fill-rule="evenodd">
        <g id="Home" transform="translate(-711.000000, -1628.000000)" fill-rule="nonzero">
            <g id="sad-(2)" transform="translate(711.000000, 1628.000000)">
                <circle id="Oval" fill="#FFD93B" cx="15" cy="15" r="15"></circle>
                <path d="M30,14.9949451 C30,23.2852379 23.2805488,30 14.9949451,30 C10.2777309,30 6.06693736,27.824267 3.31444759,24.4153061 C5.88875233,26.4972575 9.16641902,27.7398636 12.7348087,27.7398636 C21.0204124,27.7398636 27.7398636,21.0251015 27.7398636,12.7348087 C27.7398636,9.16641902 26.4972575,5.88875233 24.4153061,3.31444759 C27.819578,6.06693736 30,10.2777309 30,14.9949451 Z" id="Path" fill="#F4C534"></path>
                <g id="Group" transform="translate(9.433428, 10.538244)" fill="#3E4347">
                    <path d="M11.3737386,13.3212781 C10.6254849,13.7716066 8.61196798,11.767645 5.83703707,11.7432522 C3.10252691,11.7188594 1.04858924,13.7725448 0.300335509,13.3212781 C-0.595500924,12.9572626 0.936727183,8.59470589 5.83703707,8.56843673 C10.737347,8.59470589 12.2695751,12.9582008 11.3737386,13.3212781 Z" id="Path"></path>
                    <path d="M13.4737372,2.43458812 C13.4737372,3.75648973 12.3898973,4.83821616 11.0597729,4.83821616 C9.72870846,4.83821616 8.6458086,3.75648973 8.6458086,2.43458812 C8.6458086,1.10049012 9.72964848,0.0253309747 11.0597729,0.0253309747 C12.3908373,0.0253309747 13.4737372,1.10049012 13.4737372,2.43458812 Z" id="Path"></path>
                </g>
                <ellipse id="Oval" fill="#5A5F63" transform="translate(21.269642, 11.962762) rotate(-139.034525) translate(-21.269642, -11.962762) " cx="21.2696424" cy="11.9627621" rx="1" ry="1"></ellipse>
                <path d="M11.9830028,12.9631728 C11.9830028,14.2936733 10.8955118,15.3824363 9.56090652,15.3824363 C8.22630126,15.3824363 7.1388102,14.2936733 7.1388102,12.9631728 C7.1388102,11.6203966 8.22630126,10.5382436 9.56090652,10.5382436 C10.8955118,10.5382436 11.9830028,11.6203966 11.9830028,12.9631728 Z" id="Path" fill="#3E4347"></path>
                <ellipse id="Oval" fill="#5A5F63" transform="translate(10.341205, 11.963587) rotate(-139.034525) translate(-10.341205, -11.963587) " cx="10.3412049" cy="11.9635874" rx="1" ry="1"></ellipse>
            </g>
        </g>
    </g>
</svg>