<?xml version="1.0" encoding="UTF-8"?>
<svg width="11px" height="20px" viewBox="0 0 11 20" version="1.1" xmlns="http://www.w3.org/2000/svg" xmlns:xlink="http://www.w3.org/1999/xlink">
    <!-- Generator: sketchtool 64 (101010) - https://sketch.com -->
    <title>A61B10B7-F7F6-4AF8-A508-5E152B90F26A</title>
    <desc>Created with sketchtool.</desc>
    <g id="Page-1" stroke="none" stroke-width="1" fill="none" fill-rule="evenodd">
        <g id="Home" transform="translate(-580.000000, -2695.000000)" fill="#FFFFFF" fill-rule="nonzero">
            <g id="Group-30" transform="translate(521.000000, 2636.000000)">
                <g id="Group-23" transform="translate(48.000000, 52.000000)">
                    <g id="Group-8">
                        <g id="facebook" transform="translate(11.000000, 7.000000)">
                            <path d="M10.3958302,0.00411663808 L7.80875472,0 C4.90226415,0 3.02396226,1.91114923 3.02396226,4.86915952 L3.02396226,7.1141681 L0.422773585,7.1141681 C0.198,7.1141681 0.0159811321,7.29488851 0.0159811321,7.51780446 L0.0159811321,10.770566 C0.0159811321,10.993482 0.198207547,11.1739966 0.422773585,11.1739966 L3.02396226,11.1739966 L3.02396226,19.3817496 C3.02396226,19.6046655 3.20598113,19.7851801 3.43075472,19.7851801 L6.82456604,19.7851801 C7.04933962,19.7851801 7.23135849,19.6044597 7.23135849,19.3817496 L7.23135849,11.1739966 L10.2727547,11.1739966 C10.4975283,11.1739966 10.6795472,10.993482 10.6795472,10.770566 L10.6807925,7.51780446 C10.6807925,7.41077187 10.6378302,7.30826758 10.5616604,7.23252144 C10.4854906,7.1567753 10.381717,7.1141681 10.2737925,7.1141681 L7.23135849,7.1141681 L7.23135849,5.21104631 C7.23135849,4.29632933 7.45115094,3.83197256 8.65264151,3.83197256 L10.3954151,3.83135506 C10.6199811,3.83135506 10.802,3.65063465 10.802,3.42792453 L10.802,0.40754717 C10.802,0.185042882 10.6201887,0.00452830189 10.3958302,0.00411663808 Z" id="Path"></path>
                        </g>
                    </g>
                </g>
            </g>
        </g>
    </g>
</svg>