<?xml version="1.0" encoding="UTF-8"?>
<svg width="22px" height="23px" viewBox="0 0 22 23" version="1.1" xmlns="http://www.w3.org/2000/svg" xmlns:xlink="http://www.w3.org/1999/xlink">
    <!-- Generator: sketchtool 64 (101010) - https://sketch.com -->
    <title>DED0105E-7718-468A-BD2C-EE2BDCB5B688</title>
    <desc>Created with sketchtool.</desc>
    <g id="Page-1" stroke="none" stroke-width="1" fill="none" fill-rule="evenodd">
        <g id="Home" transform="translate(-654.000000, -2557.000000)" fill="#000000" fill-rule="nonzero" stroke="#000000">
            <g id="Group-31" transform="translate(521.000000, 2496.000000)">
                <g id="Group-13">
                    <g id="phone" transform="translate(133.500000, 62.000000)">
                        <path d="M20.4489508,16.2007457 L16.1984744,13.3659714 C15.6590757,13.0091228 14.9360362,13.1265412 14.5372593,13.6357917 L13.2991398,15.2278095 C13.1400227,15.4376287 12.8507823,15.498491 12.6205957,15.3706145 L12.3850778,15.2407694 C11.6043379,14.8151841 10.6329035,14.2853454 8.67564042,12.3272513 C6.71837735,10.3691573 6.18750865,9.39691826 5.76195249,8.61756039 L5.63281339,8.38202641 C5.50318219,8.15186505 5.5628921,7.86137451 5.77277901,7.70097517 L7.3636217,6.46314014 C7.87263231,6.06429494 7.9902067,5.3414111 7.63379265,4.80181148 L4.79921215,0.551044475 C4.43394004,0.00156088281 3.70109927,-0.163390827 3.13561851,0.176560621 L1.35822335,1.2443174 C0.799755215,1.57266235 0.390028742,2.1044286 0.214958948,2.72818558 C-0.42507719,5.06039441 0.0564160053,9.08542939 5.98524952,15.0153654 C10.7015125,19.7315817 14.2125456,20.9999458 16.6257939,20.9999458 C17.1811863,21.0022676 17.7344053,20.9300039 18.2705642,20.7850252 C18.8944016,20.6101485 19.4262135,20.200353 19.7543309,19.6416826 L20.823081,17.8652323 C21.1635013,17.2995898 20.9986429,16.5662478 20.4489508,16.2007457 Z M20.2200765,17.506128 L19.153787,19.2836447 C18.9181871,19.6868782 18.535691,19.9833566 18.0864313,20.110987 C15.9335526,20.7020982 12.1723202,20.2124926 6.4803989,14.5201822 C0.788477587,8.82787177 0.298946519,5.06671031 0.890017248,2.91335638 C1.01780302,2.46353282 1.31463019,2.0805184 1.71832826,1.84453328 L3.49572342,0.778170921 C3.74108359,0.630526427 4.05915371,0.702092995 4.21765564,0.940538852 L5.75744143,3.25244657 L7.04981658,5.19093675 C7.20458664,5.42499428 7.15373479,5.73869782 6.93293934,5.91189302 L5.34172757,7.14972805 C4.85748673,7.52002864 4.71920251,8.19004756 5.01734198,8.72181381 L5.14369242,8.951401 C5.59094264,9.77173021 6.14699121,10.7922408 8.17704624,12.8221065 C10.2071013,14.8519312 11.227214,15.4080588 12.047118,15.8552986 L12.2770176,15.9819857 C12.8087065,16.2801046 13.4787206,16.1418519 13.8489959,15.657578 L15.0867463,14.0662574 C15.2599707,13.8455699 15.5735297,13.7947556 15.8076533,13.9493722 L20.0577606,16.7841465 C20.2963542,16.9425362 20.3679159,17.2607921 20.2200765,17.506128 Z" id="Shape" stroke-width="0.5"></path>
                        <path d="M11.8599275,3.4788912 C15.124726,3.48251962 17.7704517,6.12828608 17.7741208,9.39308452 C17.7741208,9.58522741 17.9298573,9.74096386 18.1220002,9.74096386 C18.3141431,9.74096386 18.4698795,9.58522741 18.4698795,9.39308452 C18.4658434,5.74416337 15.5088487,2.78712786 11.8599275,2.78313253 C11.6677846,2.78313253 11.5120482,2.93886897 11.5120482,3.13101187 C11.5120482,3.32315476 11.6677846,3.4788912 11.8599275,3.4788912 Z" id="Path" stroke-width="0.3"></path>
                        <path d="M11.864446,5.63853062 C14.0043554,5.64104981 15.7384683,7.3751627 15.7409875,9.51507204 C15.7409875,9.70971062 15.898788,9.86746988 16.0933853,9.86746988 C16.2880239,9.86746988 16.4457831,9.70971062 16.4457831,9.51507204 C16.442851,6.98605073 14.393426,4.93662582 11.864446,4.93373494 C11.6698075,4.93373494 11.5120482,5.0914942 11.5120482,5.28613278 C11.5120482,5.48077136 11.6698075,5.63853062 11.864446,5.63853062 Z" id="Path" stroke-width="0.2"></path>
                        <path d="M11.8599296,7.65359407 C12.8201197,7.6547356 13.5982357,8.43285161 13.599418,9.39308248 C13.599418,9.5852265 13.7551961,9.74096386 13.9472993,9.74096386 C14.1394026,9.74096386 14.2951807,9.5852265 14.2951807,9.39308248 C14.2936315,8.04876742 13.2042446,6.95933978 11.8599296,6.95783133 C11.6677855,6.95783133 11.5120482,7.11356868 11.5120482,7.3057127 C11.5120482,7.49785672 11.6677855,7.65359407 11.8599296,7.65359407 Z" id="Path" stroke-width="0.1"></path>
                    </g>
                </g>
            </g>
        </g>
    </g>
</svg>