<?xml version="1.0" encoding="UTF-8"?>
<svg width="16px" height="13px" viewBox="0 0 16 13" version="1.1" xmlns="http://www.w3.org/2000/svg" xmlns:xlink="http://www.w3.org/1999/xlink">
    <title>E9C0BA8D-7BF3-4791-A0F8-8972953EB1A5</title>
    <g id="Page-1" stroke="none" stroke-width="1" fill="none" fill-rule="evenodd">
        <g id="DR-1.2_Download_Share" transform="translate(-618.000000, -382.000000)" fill="#101820" fill-rule="nonzero">
            <g id="Bitmap" transform="translate(475.000000, 143.000000)">
                <g id="Group-10-Copy" transform="translate(125.000000, 221.000000)">
                    <g id="3643777_email_envelope_letter_mail_message_icon" transform="translate(18.000000, 18.000000)">
                        <path d="M15.2515078,12.9931709 L0.52591406,12.9931709 C0.235459745,12.9931709 0,12.7507859 0,12.4517888 L0,0.541382121 C0,0.242385032 0.235459745,0 0.52591406,0 L15.2515078,0 C15.5419621,0 15.7774218,0.242385032 15.7774218,0.541382121 L15.7774218,12.4517888 C15.7774218,12.7507859 15.5419621,12.9931709 15.2515078,12.9931709 Z M1.05182812,11.9104067 L14.7255937,11.9104067 L14.7255937,1.08276424 L1.05182812,1.08276424 L1.05182812,11.9104067 Z" id="Shape"></path>
                        <path d="M7.8887109,7.42453309 C7.51199708,7.42301786 7.14822957,7.27922574 6.86318345,7.01915668 L0.184107214,0.97738224 C0.0413107471,0.848426654 -0.0254838199,0.648827226 0.00888437966,0.453771129 C0.0432525792,0.258715032 0.173562198,0.0978359265 0.350726864,0.0317354148 C0.52789153,-0.0343650969 0.724995716,0.00435522533 0.867792183,0.133310811 L7.54686842,6.18063835 C7.74367714,6.35838631 8.03374467,6.35838631 8.23055339,6.18063835 L14.9096296,0.133310811 C15.0524261,0.00435522181 15.2495303,-0.0343651029 15.4266949,0.0317354085 C15.6038596,0.0978359199 15.7341692,0.258715027 15.7685374,0.453771127 C15.8029056,0.648827226 15.7361111,0.848426655 15.5933146,0.97738224 L8.94053393,7.01915668 C8.64865484,7.28552115 8.27446431,7.42973554 7.8887109,7.42453309 L7.8887109,7.42453309 Z" id="Path"></path>
                        <polygon id="Rectangle" transform="translate(2.976017, 9.202207) rotate(-33.690000) translate(-2.976017, -9.202207) " points="0.0471473757 8.66082637 5.90488594 8.66082637 5.90488594 9.74358766 0.0471473757 9.74358766"></polygon>
                        <polygon id="Rectangle" transform="translate(13.262728, 9.204296) rotate(-56.310000) translate(-13.262728, -9.204296) " points="12.7213475 6.27542711 13.8041088 6.27542711 13.8041088 12.1331657 12.7213475 12.1331657"></polygon>
                    </g>
                </g>
            </g>
        </g>
    </g>
</svg>