<?xml version="1.0" encoding="UTF-8"?>
<svg width="21px" height="21px" viewBox="0 0 21 21" version="1.1" xmlns="http://www.w3.org/2000/svg" xmlns:xlink="http://www.w3.org/1999/xlink">
    <!-- Generator: sketchtool 64 (101010) - https://sketch.com -->
    <title>F5998C07-F3AF-4A5F-93CA-E83C8DE9A393</title>
    <desc>Created with sketchtool.</desc>
    <g id="Page-1" stroke="none" stroke-width="1" fill="none" fill-rule="evenodd">
        <g id="Home" transform="translate(-562.000000, -2558.000000)" fill="#000000" fill-rule="nonzero">
            <g id="Group-31" transform="translate(521.000000, 2496.000000)">
                <g id="Group-13">
                    <g id="help" transform="translate(41.000000, 62.000000)">
                        <path d="M10.5,0 C4.71039682,0 0,4.71039682 0,10.5 C0,16.2896032 4.71039682,21 10.5,21 C16.2896032,21 21,16.2896032 21,10.5 C21,4.71039682 16.2896032,0 10.5,0 Z M10.5,19.6875238 C5.4339448,19.6875238 1.31251429,15.5660933 1.31251429,10.5000381 C1.31251429,5.43398291 5.4339448,1.31251429 10.5,1.31251429 C15.5660552,1.31251429 19.6875238,5.4339448 19.6875238,10.5 C19.6875238,15.5660552 15.5660552,19.6875238 10.5,19.6875238 Z" id="Shape"></path>
                        <polygon id="Path" points="9.85308057 15.7251185 11.1469194 15.7251185 11.1469194 17.0189573 9.85308057 17.0189573"></polygon>
                        <path d="M10.500019,3.98104265 C8.33218765,3.98104265 6.56872038,5.73889141 6.56872038,7.89990048 L6.56872038,9.20619906 L7.87916594,9.20619906 L7.87916594,7.89990048 C7.87916594,6.45901287 9.05459521,5.28734124 10.500019,5.28734124 C11.9454809,5.28734124 13.1208721,6.45905079 13.1208721,7.89990048 C13.1208721,8.88025015 12.5968232,9.80318426 11.7534755,10.307713 L10.1627636,11.2587102 C9.96569841,11.3767268 9.8447582,11.5890961 9.8447582,11.8187204 L9.8447582,14.4312796 L11.1552038,14.4312796 L11.1552038,12.1886601 L12.4278721,11.4277334 C13.6634482,10.687854 14.4312796,9.33627524 14.4312796,7.89986256 C14.4312796,5.73889141 12.6678504,3.98104265 10.500019,3.98104265 Z" id="Path"></path>
                    </g>
                </g>
            </g>
        </g>
    </g>
</svg>