<?xml version="1.0" encoding="UTF-8"?>
<svg width="20px" height="20px" viewBox="0 0 20 20" version="1.1" xmlns="http://www.w3.org/2000/svg" xmlns:xlink="http://www.w3.org/1999/xlink">
    <!-- Generator: sketchtool 64 (101010) - https://sketch.com -->
    <title>24A63644-9013-4888-AC08-8D0C1BA1D3BC</title>
    <desc>Created with sketchtool.</desc>
    <g id="Page-1" stroke="none" stroke-width="1" fill="none" fill-rule="evenodd">
        <g id="Home" transform="translate(-688.000000, -2695.000000)" fill="#FFFFFF" fill-rule="nonzero">
            <g id="Group-30" transform="translate(521.000000, 2636.000000)">
                <g id="Group-23" transform="translate(48.000000, 52.000000)">
                    <g id="Group-8">
                        <g id="instagram" transform="translate(119.000000, 7.000000)">
                            <path d="M19.9491685,5.88007264 C19.9023057,4.81739235 19.7304249,4.08680919 19.4842048,3.45374908 C19.2301997,2.78177129 18.8394227,2.18015047 18.3274437,1.68002075 C17.8272186,1.1721075 17.2215141,0.777436949 16.5571931,0.527448376 C15.9203486,0.281275287 15.1934423,0.109427214 14.1305592,0.0625734279 C13.0597385,0.0117515889 12.719793,0 10.0038925,0 C7.287992,0 6.94804649,0.0117515889 5.88119462,0.0586053752 C4.81831156,0.105459161 4.08758899,0.277459803 3.45456069,0.523480324 C2.78230208,0.777436949 2.18056647,1.16813945 1.68034132,1.68002075 C1.17233115,2.18015047 0.777737891,2.78573935 0.527549019,3.4499336 C0.281328957,4.08680919 0.109448094,4.8134243 0.0625853676,5.87610459 C0.0117538312,6.94672098 0,7.28660164 0,10.001984 C0,12.7173664 0.0117538312,13.0572471 0.0586165577,14.1238954 C0.105479284,15.1865757 0.277512746,15.9171589 0.523732808,16.550219 C0.777737891,17.2221968 1.17233115,17.8238176 1.68034132,18.3239473 C2.18056647,18.8318605 2.78627089,19.2265311 3.45059188,19.4765197 C4.08758899,19.7226928 4.81434275,19.8945408 5.87737841,19.9413946 C6.94407768,19.988401 7.28417579,20 10.0000763,20 C12.7159768,20 13.0559223,19.988401 14.1227742,19.9413946 C15.1856572,19.8945408 15.9163798,19.7226928 16.5494081,19.4765197 C17.8937727,18.9568548 18.9566558,17.8941745 19.4764198,16.550219 C19.7224873,15.9133434 19.8945207,15.1865757 19.9413834,14.1238954 C19.9882462,13.0572471 20,12.7173664 20,10.001984 C20,7.28660164 19.9960312,6.94672098 19.9491685,5.88007264 Z M18.1477778,14.0457549 C18.1047313,15.0225112 17.9406355,15.5499595 17.8038635,15.9015918 C17.4677342,16.7728889 16.7760893,17.4644018 15.904626,17.800467 C15.5529266,17.9372129 15.0215614,18.1012774 14.048435,18.1441631 C12.993337,18.1911695 12.6768991,18.2027685 10.0078613,18.2027685 C7.33882354,18.2027685 7.01841688,18.1911695 5.96713505,18.1441631 C4.99019242,18.1012774 4.4626434,17.9372129 4.11094406,17.800467 C3.67727309,17.6402179 3.28252723,17.3862613 2.96212057,17.0541642 C2.62996007,16.7298506 2.37595499,16.3391481 2.21567536,15.9055598 C2.07890339,15.5539276 1.91480755,15.0225112 1.87191363,14.049723 C1.82489831,12.9948262 1.81329708,12.6782962 1.81329708,10.0097676 C1.81329708,7.34123897 1.82489831,7.02089343 1.87191363,5.96996473 C1.91480755,4.99320848 2.07890339,4.4657601 2.21567536,4.11412785 C2.37595499,3.68038705 2.62996007,3.28586906 2.96608938,2.96537096 C3.29031225,2.63327383 3.6810893,2.3793172 4.11491287,2.21922072 C4.46661221,2.08247484 4.99813004,1.91841031 5.97110386,1.875372 C7.0262019,1.82851822 7.34279235,1.81676663 10.0116775,1.81676663 C12.6846841,1.81676663 13.001122,1.82851822 14.0524038,1.875372 C15.0293464,1.91841031 15.5568954,2.08247484 15.9085948,2.21922072 C16.3422658,2.3793172 16.7370116,2.63327383 17.0574183,2.96537096 C17.3895788,3.28968454 17.6435839,3.68038705 17.8038635,4.11412785 C17.9406355,4.4657601 18.1047313,4.99702396 18.1477778,5.96996473 C18.1946405,7.02486148 18.2063944,7.34123897 18.2063944,10.0097676 C18.2063944,12.6782962 18.1946405,12.9908582 18.1477778,14.0457549 Z" id="Shape"></path>
                            <path d="M9.9270073,4.96350365 C7.10619412,4.96350365 4.81751825,7.25202779 4.81751825,10.0729927 C4.81751825,12.8939576 7.10619412,15.1824818 9.9270073,15.1824818 C12.7479722,15.1824818 15.0364964,12.8939576 15.0364964,10.0729927 C15.0364964,7.25202779 12.7479722,4.96350365 9.9270073,4.96350365 Z M9.9270073,13.3873912 C8.09700758,13.3873912 6.61260877,11.9031441 6.61260877,10.0729927 C6.61260877,8.24284125 8.09700758,6.75859417 9.9270073,6.75859417 C11.7571587,6.75859417 13.2414058,8.24284125 13.2414058,10.0729927 C13.2414058,11.9031441 11.7571587,13.3873912 9.9270073,13.3873912 L9.9270073,13.3873912 Z" id="Shape"></path>
                            <path d="M16.4963504,4.67153285 C16.4963504,5.31647662 15.9734442,5.83941606 15.3283929,5.83941606 C14.6834901,5.83941606 14.1605839,5.31647662 14.1605839,4.67153285 C14.1605839,4.02644048 14.6834901,3.50364964 15.3283929,3.50364964 C15.9734442,3.50364964 16.4963504,4.02644048 16.4963504,4.67153285 L16.4963504,4.67153285 Z" id="Path"></path>
                        </g>
                    </g>
                </g>
            </g>
        </g>
    </g>
</svg>