<?xml version="1.0" encoding="UTF-8"?>
<svg width="15px" height="11px" viewBox="0 0 15 11" version="1.1" xmlns="http://www.w3.org/2000/svg" xmlns:xlink="http://www.w3.org/1999/xlink">
    <!-- Generator: sketchtool 64 (101010) - https://sketch.com -->
    <title>32D2E6F9-F3BF-48A7-B855-B2BD5B0D62F5</title>
    <desc>Created with sketchtool.</desc>
    <g id="Page-1" stroke="none" stroke-width="1" fill="none" fill-rule="evenodd" opacity="0.400000006">
        <g id="Home" transform="translate(-554.000000, -1523.000000)" fill="#000000" fill-rule="nonzero">
            <g id="Group-45" transform="translate(521.000000, 1426.000000)">
                <g id="Group-32">
                    <g id="mail" transform="translate(33.000000, 97.000000)">
                        <path d="M0.372008002,0.887986363 C2.38289142,2.58412696 5.91136654,5.5681556 6.94842951,6.49858039 C7.08764892,6.6241571 7.23696996,6.688 7.39198569,6.688 C7.54668664,6.688 7.69575014,6.62475563 7.83465476,6.49977744 C8.87260484,5.56844061 12.40108,2.58412696 14.411992,0.887986363 C14.5371893,0.782588572 14.5562765,0.597330151 14.4549168,0.468475794 C14.2206047,0.17072276 13.8712541,0 13.4968354,0 L1.28713595,0 C0.912745913,0 0.563366724,0.17072276 0.32908321,0.468504296 C0.227723468,0.597330151 0.246810692,0.782588572 0.372008002,0.887986363 Z" id="Path"></path>
                        <path d="M14.517263,1.78840495 C14.4080509,1.73813298 14.2795729,1.75567104 14.1887024,1.83245004 C12.859411,2.94671672 11.1080023,4.41894263 9.78714527,5.54243536 C9.71764928,5.6013621 9.67853974,5.68793842 9.68,5.77868503 C9.68154372,5.869146 9.72397498,5.95452265 9.79557953,6.01105005 C11.0228799,6.98309848 12.8723802,8.32024705 14.2079683,9.27058713 C14.2612312,9.30866243 14.3244015,9.328 14.3878896,9.328 C14.4360399,9.328 14.4841614,9.31700301 14.5284124,9.29438062 C14.6313277,9.24230915 14.696,9.13756637 14.696,9.0233119 L14.696,2.06481506 C14.696,1.94610467 14.6261574,1.83810564 14.517263,1.78840495 Z" id="Path"></path>
                        <path d="M0.488000777,9.27055679 C1.82382203,8.32018729 3.6735229,6.98302588 4.90042779,6.01091879 C4.97202781,5.95438965 5.01445638,5.86898179 5.016,5.77854658 C5.01746017,5.68779716 4.9783531,5.60121816 4.90886151,5.54228959 C3.58805922,4.41876209 1.83644374,2.94649059 0.507265486,1.83218942 C0.415794223,1.75540804 0.287035495,1.73846929 0.178725664,1.78814296 C0.0698092968,1.83784519 0,1.94584757 0,2.06456163 L0,9.02330247 C0,9.13756047 0.0646970728,9.2423065 0.167576972,9.29437958 C0.211796265,9.31700267 0.259943596,9.328 0.308090926,9.328 C0.371574929,9.328 0.434741223,9.30866183 0.488000777,9.27055679 Z" id="Path"></path>
                        <path d="M14.3043095,10.1543195 C13.0255422,9.24232631 10.6699198,7.54205898 9.26377974,6.40435114 C9.14923592,6.31129061 8.98337646,6.31425941 8.87063669,6.41120222 C8.59472925,6.65116138 8.36383753,6.85338249 8.2000685,7.00025256 C7.69713519,7.45282363 6.99913375,7.45282363 6.49502637,6.99965309 C6.33185869,6.85306848 6.1009956,6.6502479 5.82505952,6.41117368 C5.71320748,6.31363139 5.54706166,6.31066259 5.43220283,6.40432259 C4.03081639,7.53814815 1.67253081,9.24049936 0.391673108,10.154291 C0.320369575,10.2054457 0.274437501,10.2842332 0.265503083,10.3713561 C0.256855024,10.458479 0.28577734,10.5450025 0.345741033,10.6092314 C0.576947747,10.8575546 0.902681754,11 1.23886789,11 L13.4568856,11 C13.7930717,11 14.1184907,10.8575546 14.3502702,10.6092599 C14.4099189,10.5453165 14.4391562,10.4587931 14.4305081,10.3716701 C14.4215451,10.2845757 14.375613,10.2054743 14.3043095,10.1543195 Z" id="Path"></path>
                    </g>
                </g>
            </g>
        </g>
    </g>
</svg>