<?xml version="1.0" encoding="UTF-8"?>
<svg width="61px" height="61px" viewBox="0 0 61 61" version="1.1" xmlns="http://www.w3.org/2000/svg" xmlns:xlink="http://www.w3.org/1999/xlink">
    <title>02C76FE3-2477-451E-98D9-B662DA5A4878</title>
    <g id="Page-1" stroke="none" stroke-width="1" fill="none" fill-rule="evenodd">
        <g id="Digital2" transform="translate(-178.000000, -220.000000)" fill="#7ED321" fill-rule="nonzero">
            <g id="popup" transform="translate(72.000000, 220.000000)">
                <path d="M136.5,0 C119.656375,0 106,13.656375 106,30.5 C106,47.343625 119.656375,61 136.5,61 C153.343625,61 167,47.343625 167,30.5 C167,13.656375 153.343625,0 136.5,0 Z M153.256368,25.2858712 L134.085507,44.2644544 C133.608772,44.7364086 132.964671,45 132.292677,45 C131.620682,45 130.974046,44.7364086 130.499846,44.2644544 L121.743632,35.5960618 C120.752123,34.6144975 120.752123,33.0279281 121.743632,32.0463639 C122.73514,31.0647996 124.337784,31.0647996 125.329293,32.0463639 L132.292677,38.9399074 L149.670707,21.7361732 C150.662216,20.7546089 152.26486,20.7546089 153.256368,21.7361732 C154.247877,22.7177375 154.247877,24.3043069 153.256368,25.2858712 Z" id="Shape"></path>
            </g>
        </g>
    </g>
</svg>