<?xml version="1.0" encoding="UTF-8"?>
<svg width="20px" height="16px" viewBox="0 0 20 16" version="1.1" xmlns="http://www.w3.org/2000/svg" xmlns:xlink="http://www.w3.org/1999/xlink">
    <!-- Generator: sketchtool 64 (101010) - https://sketch.com -->
    <title>7D81C99D-AE6D-4154-BD93-8FBBEC14E5C6</title>
    <desc>Created with sketchtool.</desc>
    <g id="Page-1" stroke="none" stroke-width="1" fill="none" fill-rule="evenodd">
        <g id="Home" transform="translate(-632.000000, -2697.000000)" fill="#FFFFFF" fill-rule="nonzero">
            <g id="Group-30" transform="translate(521.000000, 2636.000000)">
                <g id="Group-23" transform="translate(48.000000, 52.000000)">
                    <g id="Group-8">
                        <g id="twitter" transform="translate(63.000000, 9.000000)">
                            <path d="M20,1.87627149 C19.25625,2.19446958 18.46375,2.40538249 17.6375,2.50779107 C18.4875,2.01281627 19.13625,1.23499872 19.44125,0.297472543 C18.64875,0.758311156 17.77375,1.08382414 16.84125,1.26547746 C16.08875,0.484002458 15.01625,0 13.84625,0 C11.57625,0 9.74875,1.79702676 9.74875,4.00003039 C9.74875,4.31700933 9.77625,4.62179677 9.84375,4.91195442 C6.435,4.7498075 3.41875,3.15637875 1.3925,0.729051561 C1.03875,1.3276541 0.83125,2.01281627 0.83125,2.75040188 C0.83125,4.13535601 1.5625,5.36303983 2.6525,6.07380415 C1.99375,6.06161265 1.3475,5.87508273 0.8,5.58126764 C0.8,5.59345914 0.8,5.60930808 0.8,5.62515703 C0.8,7.56848176 2.22125,9.18263605 4.085,9.55447673 C3.75125,9.64347467 3.3875,9.68614491 3.01,9.68614491 C2.7475,9.68614491 2.4825,9.67151511 2.23375,9.61787252 C2.765,11.2015481 4.2725,12.3658361 6.065,12.4036297 C4.67,13.4679475 2.89875,14.1092203 0.98125,14.1092203 C0.645,14.1092203 0.3225,14.0945905 0,14.0543585 C1.81625,15.1967019 3.96875,15.848947 6.29,15.848947 C13.835,15.848947 17.96,9.75319815 17.96,4.46940305 C17.96,4.29262633 17.95375,4.12194537 17.945,3.95248355 C18.75875,3.38923636 19.4425,2.68578694 20,1.87627149 Z" id="Path"></path>
                        </g>
                    </g>
                </g>
            </g>
        </g>
    </g>
</svg>