<?xml version="1.0" encoding="UTF-8"?>
<svg width="18px" height="13px" viewBox="0 0 18 13" version="1.1" xmlns="http://www.w3.org/2000/svg" xmlns:xlink="http://www.w3.org/1999/xlink">
    <!-- Generator: sketchtool 64 (101010) - https://sketch.com -->
    <title>D67C2325-1831-4840-B5E5-8492BB049EF4</title>
    <desc>Created with sketchtool.</desc>
    <g id="Page-1" stroke="none" stroke-width="1" fill="none" fill-rule="evenodd">
        <g id="Home" transform="translate(-745.000000, -2698.000000)" fill="#FFFFFF" fill-rule="nonzero">
            <g id="Group-30" transform="translate(521.000000, 2636.000000)">
                <g id="Group-23" transform="translate(48.000000, 52.000000)">
                    <g id="Group-8">
                        <g id="logo-(1)" transform="translate(176.000000, 10.000000)">
                            <path d="M17.629062,1.99350558 C17.4216406,1.21398383 16.8136585,0.599495427 16.0426398,0.389594296 C14.6340858,0 8.99976009,0 8.99976009,0 C8.99976009,0 3.36565408,0 1.95710011,0.374823453 C1.20091284,0.584502481 0.578099303,1.21409488 0.370677893,1.99350558 C0,3.41727948 0,6.37 0,6.37 C0,6.37 0,9.33760238 0.370677893,10.7464944 C0.578319015,11.5259051 1.18608132,12.1403935 1.95720997,12.3502947 C3.38048556,12.74 8.99997981,12.74 8.99997981,12.74 C8.99997981,12.74 14.6340858,12.74 16.0426398,12.3651765 C16.8137684,12.1553864 17.4216406,11.5408981 17.6292817,10.7614874 C17.9999254,9.33760238 17.9999254,6.38499295 17.9999254,6.38499295 C17.9999254,6.38499295 18.0146813,3.41727948 17.629062,1.99350558 L17.629062,1.99350558 Z M7.20591646,9.09782641 L7.20591646,3.64217359 L11.8911354,6.37 L7.20591646,9.09782641 Z" id="Shape"></path>
                        </g>
                    </g>
                </g>
            </g>
        </g>
    </g>
</svg>